/* XPM */
static char *result[] = {
/* columns rows colors chars-per-pixel */
"50 50 230 2 ",
"   c #111212",
".  c #0C1611",
"X  c #282418",
"o  c #182627",
"O  c #152C34",
"+  c #192D30",
"@  c #0F3237",
"#  c #1C3434",
"$  c #13353A",
"%  c #1B343A",
"&  c #1B3B3D",
"*  c #153635",
"=  c #113334",
"-  c #3A2627",
";  c #28382E",
":  c #223234",
">  c #23353B",
",  c #243B3D",
"<  c #293938",
"1  c #353D3F",
"2  c #373139",
"3  c #2C3029",
"4  c #6C2416",
"5  c #661F25",
"6  c #483437",
"7  c #513930",
"8  c #683231",
"9  c #1E4115",
"0  c #18413D",
"q  c #0C443D",
"w  c #36503F",
"e  c #4E573B",
"r  c #6A403C",
"t  c #4A7433",
"y  c #767628",
"u  c #1D3C43",
"i  c #183943",
"p  c #243C42",
"a  c #293D44",
"s  c #223541",
"d  c #353D48",
"f  c #1C4145",
"g  c #194548",
"h  c #1F4951",
"j  c #254345",
"k  c #2B4244",
"l  c #23444C",
"z  c #2A454C",
"x  c #264D4B",
"c  c #284A48",
"v  c #334547",
"b  c #32444A",
"n  c #36494B",
"m  c #3C494B",
"M  c #2E504F",
"N  c #2C4554",
"B  c #2C4A52",
"V  c #264A57",
"C  c #354D55",
"Z  c #384C54",
"A  c #2D535B",
"S  c #2E5B5D",
"D  c #275658",
"F  c #37535A",
"G  c #3B555D",
"H  c #31585C",
"J  c #3B5556",
"K  c #3F5248",
"L  c #37605C",
"P  c #2E4F60",
"I  c #2B5362",
"U  c #295A67",
"Y  c #345563",
"T  c #335B63",
"R  c #3C5C63",
"E  c #375969",
"W  c #3B6264",
"Q  c #37666B",
"!  c #286676",
"~  c #3C6D76",
"^  c #3D706F",
"/  c #434A49",
"(  c #445356",
")  c #425459",
"_  c #44595D",
"`  c #4B5C5D",
"'  c #535657",
"]  c #56504E",
"[  c #62544E",
"{  c #49685B",
"}  c #536456",
"|  c #5A6049",
" . c #736551",
".. c #4B5E63",
"X. c #455B68",
"o. c #535E61",
"O. c #7B5D60",
"+. c #4C6364",
"@. c #4A646B",
"#. c #4E6A6C",
"$. c #446667",
"%. c #566566",
"&. c #54636A",
"*. c #53686B",
"=. c #5B6B6E",
"-. c #566B67",
";. c #4D6E73",
":. c #476A73",
">. c #546E7C",
",. c #566C73",
"<. c #467578",
"1. c #567474",
"2. c #56747E",
"3. c #5E737B",
"4. c #5D7B7E",
"5. c #577677",
"6. c #6B6669",
"7. c #62747A",
"8. c #65797C",
"9. c #6C7B7C",
"0. c #667377",
"q. c #747578",
"w. c #71676D",
"e. c #8F1919",
"r. c #B8150E",
"t. c #B11D10",
"y. c #AC221A",
"u. c #903736",
"i. c #BA3628",
"p. c #D4110B",
"a. c #ED0F09",
"s. c #EE2214",
"d. c #C43729",
"f. c #EA2D21",
"g. c #84423B",
"h. c #947D34",
"j. c #845257",
"k. c #916455",
"l. c #A9745C",
"z. c #AF6D5A",
"x. c #BF7869",
"c. c #F05F47",
"v. c #DD725B",
"b. c #749325",
"n. c #6E887F",
"m. c #8F9358",
"M. c #9FA647",
"N. c #D68974",
"B. c #E99278",
"V. c #DAC44E",
"C. c #597C84",
"Z. c #697D83",
"A. c #617381",
"S. c #717E83",
"D. c #5B8584",
"F. c #5E8B8E",
"G. c #558B8C",
"H. c #4C888F",
"J. c #648285",
"K. c #6B8485",
"L. c #6C848B",
"P. c #6B8989",
"I. c #728287",
"U. c #768A83",
"Y. c #738B8D",
"T. c #7A8B8E",
"R. c #76858B",
"E. c #78978A",
"W. c #698C93",
"Q. c #738D93",
"!. c #798C92",
"~. c #739393",
"^. c #7D9395",
"/. c #7C9B94",
"(. c #7C959C",
"). c #7D9B9C",
"_. c #77929E",
"`. c #62999C",
"'. c #469AA4",
"]. c #6899A2",
"[. c #7B9CAB",
"{. c #7CA2A3",
"}. c #7BABAE",
"|. c #79ACB2",
" X c #808987",
".X c #839395",
"XX c #83959A",
"oX c #89939B",
"OX c #85999C",
"+X c #8C9A9E",
"@X c #8A9897",
"#X c #919796",
"$X c #83998F",
"%X c #859BA1",
"&X c #899CA4",
"*X c #8694A5",
"=X c #949FA0",
"-X c #86A5AA",
";X c #9AA6A9",
":X c #83ACB4",
">X c #8CB4B8",
",X c #96B8B7",
"<X c #90A8B4",
"1X c #A1ADB1",
"2X c #AAB3B4",
"3X c #96B8C4",
"4X c #A6BEC2",
"5X c #9BC4CA",
"6X c #A4C4CA",
"7X c #A9C8CA",
"8X c #B7C6CA",
"9X c #A9CDDA",
"0X c #B4CCD4",
"qX c #ABD0D7",
"wX c #B4D7DF",
"eX c #C9C9C6",
"rX c #CBCDCA",
"tX c #CAD1CE",
"yX c #CBD1D3",
"uX c #C6D6D9",
"iX c #D2D7D6",
"pX c #C4CCD2",
"aX c #C3DCE5",
"sX c #C8DEE7",
"dX c #D5E5E8",
"fX c #CBE0E4",
"gX c #E2EEEF",
"hX c #F7FCFB",
"jX c #E4F0F0",
"kX c None",
/* pixels */
"kXkXkXkXkXkXkXkXkXkXkXkXkXkXkX3 d kXkXkXkXkXkXkXkXkXkXkXkXkXkXkXkXkXkXkXkXkXkXkXkXkXkXkXkXkXkXkXkXkX",
"kXkXkXkXkXkXkXkXkXkXkXkXkXkXkXo - [ 6.kXkXkXkXkXkXkXkXkXkXkXkXkXkXkXkXkXkXkXkXkXkXkXkXkXkXkXkXkXkXkX",
"kXkXkXkXkXkXkXkXkXkXkXkXkXkXkX- 4 j.w.A.kXkXkXkXkXkXkXkXkXkXkXkXkXkXkXkXkXkXkXkXkXkXkXkXkXkXkXkXkXkX",
"kXkXkXkXkXkXkXkXkXkXkXkXkXkXkX5 t.y.j.I.kXkXkXkXkXkXkXkXkXkXm d kXkXkXkXkXkXkXkXkXkXkXkXkXkXkXkXkXkX",
"kXkXkXkXkXkXkXkXkXkXkXkXkXkX6 e.p.p.u.q.8.kXkXkXkXkXkXkXkXb < > kXkXkXkXkXkXkXkXkXkXkXkXkXkXkXkXkXkX",
"kXkXkXkXkXkXkXkXkXkXkXkXkXkX8 d.a.a.y.j.9.( kXkXkXkXkXkX, # > a kXkXkXkXkXkXkXkXkXkXkXkXkXkXkXkXkXkX",
"kXkXkXkXkXkXkXkXkXkXkXkXkXkXk.v.f.a.p.[ S.` kXkXkXkXkXk = % a d kXkXkXkXkXkXkXkXkXkXkXkXkXkXkXkXkXkX",
"kXkXkXkXkXkXkXkXkXkXkXkXkXkXl.B.c.s.p.u.q.0.< kXkXkX%.( J F z a kXkXkXkXkXkXkXkXkXkXkXkXkXkXkXkXkXkX",
"kXkXkXkXkXkXkXkXkXkXkXkXkXkXl.B.v.i.t.u.q.T.n ) T.oX8.=.+.Y B , ; kXkXkXkXkXkXkXkXkXkXkXkXkXkXkXkXkX",
"kXkXkXkXkXkXkXkXkXkXkXkXkXkXk.B.z.8 5 8 q.-XK.Z.*XOX~.+.> @ p 1 6 kXkXkXkXkXkXkXkXkXkXkXkXkXkXkXkXkX",
"kXkXkXkXkXkXkXkXkXkXkXkXkXkXe N.x.' z ..I.OX(.Y.L._.).~.3.Z s 2 6 kXkXkXkXkXkXkXkXkXkXkXkXkXkXkXkXkX",
"kXkXkXkXkXkXkXkXkXkXkXkXkXkX3 l.z.] C A..X).L._ &.#.P.XX=XoX&.s : kXkXkXkXkXkXkXkXkXkXkXkXkXkXkXkXkX",
"kXkXkXkXkXkXkXkXkXkXkXkXkXkXkX[  .[ %.Y.%X).P.,.OXS.R.@X^./.&X3.a kXkXkXkXkXkXkXkXkXkXkXkXkXkXkXkXkX",
"kXkXkXkXkXkXkXkXkXkXkXkXkXkXkX* / 6.U.XXXX)./.!.oX9.' =.E./.[.*X#.* kXkXkXkXkXkXkXkXkXkXkXkXkXkXkXkX",
"kXkXkXkXkXkXkXkXkXkXkXkXkXkX& x Z q.#XOXXXXXXX@XT.d     ' .X*X*XK.M , kXkXkXkXkXkXkXkXkXkXkXkXkXkXkX",
"kXkXkXkXkXkXkXkXkXkXkXkXkXkXj :.Q.oXoXXX.XXXXX.X.X9./   o 0.#X.X~.1.b kXkXkXkXkXkXkXkXkXkXkXkXkXkXkX",
"kXkXkXkXkXkXkXkXkXkXkXkXkXkX& S D.XX*XOXXX.XXXXX.X@Xn.| X e n.Y.K.8.< kXkXkXkXkXkXkXkXkXkXkXkXkXkXkX",
"kXkXkXkXkXkXkXkXkXkXkXkXkXkXkXf H 2.Q.(.%X%XOXOXOXOXT.m.h.7 ` I.*.( kXkXkXkXkXkXkXkXkXkXkXkXkXkXkXkX",
"kXkXkXkXkXkXkXkXkXkXkXkXkXkXz i V Y :.C.Z.Q.!.!.^.OXU.m.V.y w / K ; kXkXkXkXkXkXkXkXkXkXkXkXkXkXkXkX",
"kXkXkXkXkXkXkXkXkXkXkXkXkXkXkXi N Y E Y E #.Z.Z.K.I.n.} M.b.9 ; w * 0 kXkXkXkXkXkXkXkXkXkXkXkXkXkXkX",
"kXkXkXkXkXkXkXkXkXkXkXkXkXkXkXa z A I T T E C.R.8.5.9.*.e t { $.{ D g q kXkXkXkXkXkXkXkXkXkXkXkXkXkX",
"kXkXkXkXkXkXkXkXkXkXkXkXkXkXkXkX> s z A E E E C.;.@.$.&.0 U.8X-X3.C.^ q c kXkXkXkXkXkXkXkXkXkXkXkXkX",
"kXkXkXkXkXkXkXkXkXkXkXkXkXkXkXkXkXkXkXs N Y I V V S x 0 -.iXhXiX#X^.D.0 v kXkXkXkXkXkXkXkXkXkXkXkXkX",
"kXkXkXkXkXkXkXkXkXkXkXkXkXkXkXkXkXkXkXkX> p I U Q |.<XOX8XdXdXfX6X{.#.kXkXkXkXkXkXkXkXkXkXkXkXkXkXkX",
"kXkXkXkXkXkXkXkXkXkXkXkXkXkXkXkXkXkXkXkX+ = $ l V ~ |.9X9X>X3X4X{.C.kXkXkXkXkXkXkXkXkXkXkX{ kXkXkXkX",
"kXkXkXkX( ) _ kXkXkXkXkXkXkXkXkXkXkXkXkX$ i j kXkXj D ! ! U U <.C.kXkXkXkXkXkXkXkXkXW T X.kXkX` kXkX",
"kXkXkXkXkX%.8.9.` kXkXkXkXkXkXkXkXkXkXkX@ l G b kXkXkXg h V h i f j kXkXkXkXkXkXkXkXkXkXkXkXkXG kXkX",
"kXkXkXkXkXkX1.Y..X-.kXkXkXkXkXkXkXkXkX% $ l ;.,.v kXkX, u kXkXkXkXkXkXkXkXn kXkXkXkXkXkXkXkXR G kXkX",
"kXkXkXkXkXkXkX5.).-XJ kXkXkXkXkXkXkX: j z u ,.OX-.: kXk % # kXkXkXkXkXkXkXkXkXkXkXkXkXkXkXkXkXkXkXkX",
"kXkXkXkXkXkXkXkXJ.-XW.f kXkXkXkXkX: a Z @.+.Z I..X+.n O S G.^ S kXkXkXkXkXkXkXkXkXkXkXkX>.kXkXkXkXkX",
"kXkXkXkXkXkXkXkXkXC.W.T * kXkXkX% p Z ..T.1X-./ OX^.-.x ! '.H.^ kXkXkXkXkXkXkXkXkXkXkXC.>.kXkXkXkXkX",
"kXkXkXkXkXkXkXkXkXA $.P.X.j p > i B _ 0.2XiX1X/ %.=XE.~.].H.`.5XkXkXkX;.kX:.Q kXkXkXkXkXkXkXkXkXkXkX",
"kXkXkXkXkXkXkXkXkXkXj A._.>.z O N Y @.+XyXrXrX#X/ 0.&X1XuX2X8XuX(.Q :.<.kX:.C.<.kXkXkXkXkXkXkXkXkXkX",
"kXkXkXkXkXkXkXkXkXkXa z 2.D.C i P E L.8XiXeXrXrXq.m 8.+XiXhXhX0XOX-X-XkXkXkX{.kXkXkXkXkXkXkXkXkXkXkX",
"kXkXkXkXkXkXkXkXkXkXkXa u D $ u I E &XyXeXeXeXrXpX&.a I.iXhXjX0X7XdX0XP.kXkXkXkXkXkXkXkXkXkXkXkXkXkX",
"kXkXkXkXkXkXkXkXkXkXkXkXb f = u P P S.8XyXeXrXrXpX8.# } iXjXfXuXsXuX4X~.kXkXkXkXkXkXkXkXkXkXkXkXkXkX",
"kXkXkXkXkXkXkXkXkXkXkXkXkXkXk p i u X.OXpXyXyXtX.X0 kXkXkXkXkXkXkXsXdXkXkXkXkXkXkXkXkXkXkXkXkXkXkXkX",
"kXkXkXkXkXkXkXkXkXkXkXkXkXkXkXkXO z Y X.S.1X;XS., # kXkXkXkXkXkXkXkXkXkXOXkXkXkXkXkXkXkXkXkXkXkXkXkX",
"kXkXkXkXkXkXkXkXkXkXkXkXkXkXkXkX, ,.Z.@.) kX%., % B kXkXkXkXkXkXkXkXkXkXkXkXkXkXkXkXkXkXkXkXkXkXkXkX",
"kXkXkXkXkXkXkXkXkXkXkXkXkXkXkXkXX.Q.&X_.kXkXkXkXF Y C kXkXkXkXkXkXkXkXkXkXkXkXkXkXkXkXkXkXkXkXkXkXkX",
"kXkXkXkXkXkXkXkXkXkXkXkXkXkXkXJ J.OX-XkXkXkXkXkXX.R Y C kXkXkXkXkXkXkXkXkXkXkXkXkXkXkXkXkXkXkXkXkXkX",
"kXkXkXkXkXkXkXkXkXkXkXkXkXkXkX@.;.A.0.kXkXkXkXkXkXW T R kXkX0X3X}.kXkXkXkXkXkXkXkXkXkXkXkXkXkXkXkXkX",
"kXkXkXkXkXkXkXkXkXkXkXkXkX0XuX^.@.j = g kXkXkXkXkX@.G @.<XaXwX5XkXkXkXkXkXkXkXkXkXkXkXkXkXkXkXkXkXkX",
"kXkXkXkXkXkXkXkXkXkXkXkX3.{.7X0X&X;.1.n.:.kXkXkXkXkXC.[.9X5X{.~.kXkXkXkXkXkXkXkXkXkXkXkXkXkXkXkXkXkX",
"kXkXkXkXkXkXkXkXkXkXkXkXkX:.F.>X3X6XaX6XG.~ kXkXkXC.3X9X>XD.W kXkXkXkXkXkXkXkXkXkXkXkXkXkXkXkXkXkXkX",
"kXkXkXkXkXkXkXkXkXkXkXkXkXkXkXQ F.:X0X9X].~ kXkXkX<.>X{.;.x kXkXkXkXkXkXkXkXkXkXkXkXkXkXkXkXkXkXkXkX",
"kXkXkXkXkXkXkXkXkXkXkXkXkXkXkXkXkXH F.}.F.Q kXkXkX$.Q x kXkXkXkXkXkXkXkXkXkXkXkXkXkXkXkXkXkXkXkXkXkX",
"kXkXkXkXkXkXkXkXkXkXkXkXkXkXkXkXkXkXkXkXkXkXkXkXkXkXkXkXkXkXkXkXkXkXkXkXkXkXkXkXkXkXkXkXkXkXkXkXkXkX",
"kXkXkXkXkXkXkXkXkXkXkXkXkXkXkXkXkXkXkXkXkXkXkXkXkXkXkXkXkXkXkXkXkXkXkXkXkXkXkXkXkXkXkXkXkXkXkXkXkXkX",
"kXkXkXkXkXkXkXkXkXkXkXkXkXkXkXkXkXkXkXkXkXkXkXkXkXkXkXkXkXkXkXkXkXkXkXkXkXkXkXkXkXkXkXkXkXkXkXkXkXkX"
};
